<?xml version="1.0" encoding="utf-8"?>
<!-- Generator: Adobe Illustrator 18.0.0, SVG Export Plug-In . SVG Version: 6.00 Build 0)  -->
<!DOCTYPE svg PUBLIC "-//W3C//DTD SVG 1.1//EN" "http://www.w3.org/Graphics/SVG/1.1/DTD/svg11.dtd">
<svg version="1.1" id="Layer_1" xmlns="http://www.w3.org/2000/svg" xmlns:xlink="http://www.w3.org/1999/xlink" x="0px" y="0px"
	 viewBox="0 0 270.1 21.9" enable-background="new 0 0 270.1 21.9" xml:space="preserve">
<g>
	<g>
		<path d="M254.2,15.1h5.3c0.3,1.2,1,2.2,2.7,2.2c0.9,0,1.7-0.4,2-0.9c0.5-0.6,0.8-1.4,0.8-5.2c0-3.8-0.3-4.6-0.8-5.2
			c-0.4-0.5-1.1-0.9-2-0.9c-1.7,0-2.4,1.1-2.7,2.2h-5.3c0.8-4.6,4-6.9,8-6.9c2.6,0,4.3,0.8,5.9,2.3c2.2,2.2,2.2,4.8,2.2,8.4
			c0,3.5,0,6.2-2.2,8.4c-1.5,1.5-3.3,2.3-5.9,2.3C258.1,21.9,254.9,19.7,254.2,15.1z"/>
		<path d="M234.4,21.7l7.7-21.1h4l7.7,21.1h-5.4l-1-3.1h-6.5l-1,3.1H234.4z M242.1,14.3h3.7l-1.9-5.6L242.1,14.3z"/>
		<path d="M213.2,21.7V0.7h5.1L223,10l4.7-9.3h5.1v21.1h-5.2V11.7l-3,5.2h-3.3l-3-5.2v10.1H213.2z"/>
		<path d="M195.3,21.7v-4.6h9.1v-3.7h-7.8V8.8h7.8V5.3h-9.1V0.7h14.3v21.1H195.3z"/>
		<path d="M175,21.7l4.6-8.8c-1.7-0.8-3.4-2.6-3.4-5.5c0-3.5,2.5-6.8,7.2-6.8h8.3v21.1h-5.2v-7.8h-1.7l-3.7,7.8H175z M181.3,7.5
			c0,1.1,0.8,2.1,2.2,2.1h2.9V5.3h-2.9C182.1,5.3,181.3,6.4,181.3,7.5z"/>
		<path d="M157.3,11.2c0-3.5,0-6.2,2.2-8.4c1.5-1.5,3.3-2.3,5.8-2.3c2.6,0,4.3,0.8,5.9,2.3c2.2,2.2,2.2,4.8,2.2,8.4
			c0,3.5,0,6.2-2.2,8.4c-1.5,1.5-3.3,2.3-5.9,2.3c-2.6,0-4.3-0.8-5.8-2.3C157.3,17.5,157.3,14.8,157.3,11.2z M162.5,11.2
			c0,3.8,0.3,4.5,0.8,5.2c0.4,0.5,1.1,0.9,2.1,0.9c0.9,0,1.7-0.4,2.1-0.9c0.5-0.6,0.8-1.3,0.8-5.2c0-3.8-0.3-4.6-0.8-5.2
			c-0.4-0.5-1.1-0.9-2.1-0.9c-0.9,0-1.7,0.4-2.1,0.9C162.8,6.7,162.5,7.4,162.5,11.2z"/>
		<path d="M138.3,21.7V0.7h5.2v10.6l6.7-10.6h4.5v21.1h-5.2V11.1l-6.7,10.6H138.3z"/>
	</g>
	<g>
		<path d="M110.7,14.8c0-1.9,0.4-3.5,1.6-4.6c0.9-0.9,2.2-1.5,4.1-1.7l2.5-0.4c0.7-0.1,1.2-0.4,1.5-0.6c0.3-0.3,0.4-0.7,0.4-1
			c0-0.9-0.7-1.9-2.5-1.9c-1.7,0-2.9,0.1-4,1.2l-3.3-3.3c1.8-1.8,4.1-2.5,7.1-2.5c4.8,0,7.7,2.8,7.7,6.7c0,1.8-0.5,3.2-1.5,4.2
			c-0.9,1-2.4,1.6-4.2,1.9l-2.5,0.4c-0.7,0.1-1.1,0.3-1.4,0.6c-0.3,0.3-0.4,0.7-0.4,1.2c0,1.2,1,1.9,3,1.9c1.7,0,3.6-0.4,4.7-1.5
			l3.3,3.3c-2.1,2.2-4.8,2.8-8,2.8C114.4,21.4,110.7,19.1,110.7,14.8z"/>
		<path d="M91.3,21.2L99,0.2h4l7.7,21.1h-5.4l-1-3.1h-6.5l-1,3.1H91.3z M99.1,13.8h3.7l-1.9-5.6L99.1,13.8z"/>
		<path d="M72.8,21.2V0.2H78v10.6l6.7-10.6h4.5v21.1h-5.2V10.6l-6.7,10.6H72.8z"/>
		<path d="M53.7,10.7c0-3.6,0-5.3,1-7c1.4-2.3,3.7-3.5,6.8-3.5h7.8v21.1h-7.8c-3.2,0-5.4-1.2-6.8-3.5C53.7,16,53.7,14.3,53.7,10.7z
			 M58.9,10.7c0,3.6,0.2,4.1,0.6,4.7c0.5,0.7,1.2,1.2,2.5,1.2h2.3V4.8h-2.3c-1.3,0-2,0.5-2.5,1.2C59,6.6,58.9,7.2,58.9,10.7z"/>
		<path d="M33.9,21.2l7.7-21.1h4l7.7,21.1h-5.4l-1-3.1h-6.5l-1,3.1H33.9z M41.7,13.8h3.7l-1.9-5.6L41.7,13.8z"/>
		<path d="M16.9,12V9.1h8.3v4.3H22v0.3c0,0.8,0.2,1.7,0.8,2.2c0.5,0.5,1.2,0.8,2.3,0.8c0.9,0,1.7-0.4,2-0.9c0.5-0.6,0.8-1.4,0.8-5.2
			c0-3.8-0.3-4.6-0.8-5.2c-0.4-0.5-1.1-0.9-2-0.9c-1.8,0-2.6,0.8-3,2.4h-5.2c0.5-3.5,2.8-7,8.2-7c2.5,0,4.3,0.8,5.8,2.3
			c2.2,2.2,2.2,4.9,2.2,8.4c0,3.5,0,6.2-2.2,8.4c-1.5,1.5-3.3,2.3-5.8,2.3c-2.3,0-4.3-0.5-6.1-2.4C17.4,17.4,16.9,15.4,16.9,12z"/>
		<path d="M0,21.2l0-4.6h9.1v-3.7H1.3V8.3h7.8V4.8H0l0-4.6h14.3v21.1H0z"/>
	</g>
</g>
</svg>
